<svg xmlns="http://www.w3.org/2000/svg" version="1.1" xmlns:xlink="http://www.w3.org/1999/xlink" xmlns:svgjs="http://svgjs.com/svgjs" width="50" height="50"><svg version="1.1" id="SvgjsSvg1003" x="0px" y="0px" viewBox="0 0 50 50" enable-background="new 0 0 50 50" xml:space="preserve" sodipodi:docname="logo.svg" inkscape:version="1.1.2 (08b2f3d93c, 2022-04-05)" xmlns:inkscape="http://www.inkscape.org/namespaces/inkscape" xmlns:sodipodi="http://sodipodi.sourceforge.net/DTD/sodipodi-0.dtd" xmlns="http://www.w3.org/2000/svg" xmlns:svg="http://www.w3.org/2000/svg"><defs id="SvgjsDefs1002"></defs><sodipodi:namedview id="SvgjsSodipodi:namedview1001" pagecolor="#505050" bordercolor="#eeeeee" borderopacity="1" inkscape:pageshadow="0" inkscape:pageopacity="0" inkscape:pagecheckerboard="0" showgrid="false" inkscape:zoom="14.38" inkscape:cx="24.582754" inkscape:cy="25" inkscape:window-width="2560" inkscape:window-height="1050" inkscape:window-x="0" inkscape:window-y="0" inkscape:window-maximized="1" inkscape:current-layer="Layer_1"></sodipodi:namedview>
<path d="m 24.936666,0.00627925 c -10.341182,0 -18.753843,8.10556685 -18.753843,18.07010875 0,3.303801 0.9376927,6.541453 2.7349356,9.398288 l 14.7399594,21.84896 c 0.290682,0.431338 0.778406,0.689838 1.297262,0.689838 0.520419,0 1.005089,-0.260062 1.294211,-0.689838 L 40.995254,27.416681 c 1.762862,-2.811513 2.695254,-6.04118 2.695254,-9.340293 0,-9.9645419 -8.412661,-18.07010875 -18.753842,-18.07010875 z m -0.0062,8.63214045 c 0.223175,0 0.43356,0.1105488 0.558585,0.2960809 l 6.3398,9.3982874 c 0.773047,1.22881 1.175168,2.620294 1.175168,4.041356 0,4.286041 -3.619405,7.774419 -8.067448,7.774419 -4.448047,1e-6 -8.064396,-3.488378 -8.064396,-7.774419 0,-1.419045 0.401646,-2.807621 1.159904,-4.016936 l 6.342852,-9.4227074 c 0.124361,-0.1848612 0.331686,-0.2960809 0.555535,-0.2960809 z" id="SvgjsPath1000" style="fill:#ffffff;fill-opacity:1;stroke:none;stroke-width:1.56129;stroke-opacity:1" sodipodi:nodetypes="cssccssscc"></path>

</svg><style>@media (prefers-color-scheme: light) { :root { filter: none; } }
</style></svg>